<?xml version="1.0" standalone="no"?>
<!DOCTYPE svg PUBLIC "-//W3C//DTD SVG 20010904//EN"
 "http://www.w3.org/TR/2001/REC-SVG-20010904/DTD/svg10.dtd">
<svg version="1.0" xmlns="http://www.w3.org/2000/svg"
 width="640.000000pt" height="640.000000pt" viewBox="0 0 640.000000 640.000000"
 preserveAspectRatio="xMidYMid meet">
<metadata>
Created by potrace 1.11, written by Peter Selinger 2001-2013
</metadata>
<g transform="translate(0.000000,640.000000) scale(0.100000,-0.100000)"
fill="#000000" stroke="none">
<path d="M3145 5563 c-35 -2 -78 -10 -162 -28 -46 -10 -59 -13 -84 -23 -15 -6
-30 -8 -33 -5 -3 4 -6 1 -6 -5 0 -7 -7 -12 -15 -12 -17 0 -87 -42 -117 -70
-38 -35 -71 -125 -58 -160 1 -3 3 -12 5 -21 5 -28 35 -85 55 -107 11 -12 20
-24 20 -27 0 -13 160 -160 160 -147 0 4 7 -2 15 -12 8 -11 15 -16 15 -10 0 5
4 4 8 -1 6 -9 39 -27 151 -79 35 -16 231 -12 231 5 0 7 93 44 99 40 2 -2 7 1
10 6 3 5 27 24 53 41 25 18 54 39 62 48 9 8 16 12 16 9 0 -4 18 13 40 36 22
24 40 47 40 51 0 4 7 8 16 8 8 0 13 4 10 8 -3 5 3 18 12 28 67 73 75 194 17
265 -24 29 -85 74 -85 62 0 -4 -4 -3 -8 2 -36 50 -310 107 -467 98z"/>
<path d="M2103 5236 c-15 -5 -30 -12 -33 -15 -9 -11 -89 -71 -94 -71 -3 0 -18
-12 -34 -27 -47 -45 -124 -108 -128 -105 -8 5 -32 -23 -27 -30 2 -5 1 -8 -4
-8 -7 0 -44 -30 -116 -95 -15 -14 -24 -25 -21 -25 4 0 0 -7 -7 -17 -11 -13
-11 -17 -1 -20 6 -3 12 -10 12 -17 0 -6 12 -19 28 -28 31 -19 66 -46 93 -70
11 -10 21 -18 24 -18 2 0 21 -11 41 -25 20 -14 49 -25 63 -25 30 0 131 47 131
61 0 5 4 9 10 9 5 0 25 16 45 35 19 20 35 33 35 31 0 -3 15 10 34 29 19 18 37
31 40 28 3 -4 6 1 6 11 0 9 4 15 9 11 6 -3 15 4 21 15 6 11 15 20 21 20 5 0
20 11 33 25 13 14 27 25 31 25 4 0 16 10 26 22 11 11 19 19 19 16 0 -3 19 12
42 33 68 62 58 116 -27 149 -19 8 -35 17 -35 22 0 4 -9 8 -20 8 -11 0 -20 5
-20 11 0 5 -4 8 -9 4 -5 -3 -12 -1 -16 5 -4 6 -11 8 -16 5 -5 -4 -9 -2 -9 3 0
19 -104 32 -147 18z"/>
<path d="M4212 5235 c-24 -7 -58 -20 -76 -29 -19 -9 -37 -16 -41 -16 -4 0 -19
-9 -35 -20 -15 -11 -30 -17 -34 -13 -3 3 -6 0 -6 -7 0 -7 -3 -11 -6 -7 -3 3
-15 -3 -26 -13 -28 -26 -19 -83 17 -111 14 -11 31 -27 39 -34 7 -8 16 -11 20
-8 3 4 6 -1 6 -11 0 -9 5 -14 10 -11 6 3 10 1 10 -5 0 -6 5 -8 10 -5 6 3 10 0
10 -7 0 -7 14 -21 31 -30 17 -10 27 -22 24 -28 -4 -6 -2 -9 4 -8 12 3 121 -81
121 -93 0 -5 5 -9 12 -9 6 0 23 -12 37 -27 56 -60 109 -93 158 -99 43 -5 53
-2 90 25 24 17 48 31 54 31 5 0 7 5 4 10 -3 6 1 10 9 10 9 0 16 5 16 10 0 6 5
10 10 10 6 0 20 9 32 20 12 10 26 16 32 13 6 -3 8 -3 4 1 -4 5 1 17 12 28 10
11 17 26 16 34 -2 14 -91 114 -102 114 -12 0 -52 49 -46 56 4 4 2 4 -4 1 -6
-4 -29 9 -50 28 -21 19 -43 35 -47 35 -5 0 -5 5 -2 10 3 6 2 10 -4 10 -6 0
-26 14 -44 30 -19 17 -40 30 -46 30 -7 0 -9 5 -6 10 3 6 0 10 -8 10 -8 0 -21
7 -28 17 -14 17 -106 63 -124 62 -5 0 -29 -6 -53 -14z"/>
<path d="M2540 4988 c-19 -5 -43 -17 -52 -25 -10 -9 -18 -13 -18 -9 0 4 -12
-6 -27 -21 -16 -16 -32 -30 -38 -33 -12 -5 -17 -9 -70 -55 -22 -19 -43 -35
-47 -35 -4 0 -31 -22 -60 -50 -29 -27 -59 -50 -66 -50 -7 0 -11 -4 -7 -9 3 -5
-4 -12 -15 -16 -11 -4 -18 -11 -15 -16 4 -5 2 -9 -4 -9 -15 0 -61 -50 -73 -80
-15 -36 -10 -79 12 -108 11 -13 20 -22 20 -18 0 4 17 -11 38 -32 22 -22 49
-45 61 -51 12 -7 19 -16 16 -22 -4 -5 -3 -8 2 -7 12 4 73 -48 73 -61 0 -6 4
-10 8 -9 4 2 29 -18 55 -43 64 -64 93 -81 141 -84 44 -2 114 19 132 41 6 8 15
14 19 14 4 0 17 10 29 23 20 21 121 111 194 174 18 15 49 43 69 61 19 17 40
32 45 32 5 0 6 5 3 10 -3 6 -2 10 4 10 16 0 70 57 82 86 9 25 6 85 -6 104 -2
4 -30 27 -62 51 -32 24 -59 47 -61 52 -2 4 -8 7 -14 7 -5 0 -15 6 -22 13 -8 6
-24 19 -36 27 -12 8 -28 21 -36 28 -7 6 -17 12 -22 12 -5 0 -17 9 -27 20 -10
11 -22 20 -28 20 -5 0 -18 10 -28 22 -11 11 -19 18 -19 14 0 -3 -10 0 -23 8
-29 20 -83 25 -127 14z"/>
<path d="M3782 4989 c-18 -3 -41 -14 -51 -23 -10 -9 -21 -13 -24 -9 -4 3 -7 1
-7 -5 0 -5 -15 -19 -32 -31 -18 -11 -43 -29 -55 -41 -13 -11 -23 -18 -23 -14
0 4 -9 -1 -20 -12 -27 -27 -41 -38 -90 -70 -24 -16 -50 -33 -58 -39 -24 -16
-57 -51 -61 -66 -9 -28 -9 -89 0 -89 5 0 9 -6 9 -12 1 -7 17 -26 36 -43 20
-16 45 -38 55 -47 10 -10 24 -18 30 -18 5 0 7 -4 4 -10 -3 -5 -1 -10 4 -10 6
0 29 -18 51 -40 22 -22 42 -40 45 -40 6 1 46 -35 142 -127 30 -29 57 -53 60
-53 3 0 18 -9 34 -21 37 -26 117 -31 159 -11 17 8 58 41 92 74 33 32 64 55 69
52 5 -3 8 -1 7 5 -3 11 79 91 93 91 6 0 7 5 4 10 -6 9 8 14 28 11 5 -1 6 2 4
6 -3 5 13 22 34 38 59 46 69 95 32 153 -21 32 -101 111 -107 105 -2 -2 -13 7
-24 21 -11 15 -25 26 -32 26 -6 0 -8 5 -5 10 3 6 -1 10 -9 10 -8 0 -24 12 -35
26 -12 15 -21 24 -21 21 0 -6 -33 21 -86 70 -13 12 -24 19 -24 15 0 -4 -6 0
-13 9 -7 8 -33 29 -59 47 -49 34 -99 44 -156 31z"/>
<path d="M1560 4763 c-8 -3 -27 -18 -41 -34 -15 -15 -30 -25 -34 -21 -4 4 -5
2 -3 -4 2 -6 -16 -32 -39 -58 -24 -26 -43 -52 -43 -58 0 -6 -3 -8 -6 -5 -8 7
-44 -36 -44 -51 0 -6 -9 -14 -20 -17 -11 -4 -20 -15 -20 -26 0 -11 -4 -17 -10
-14 -5 3 -10 2 -10 -4 0 -5 -17 -27 -37 -48 -21 -21 -36 -39 -35 -40 8 -9 0
-23 -10 -17 -6 4 -8 3 -4 -4 3 -6 -1 -18 -10 -27 -36 -35 -29 -113 17 -223 10
-23 18 -45 18 -49 0 -3 3 -9 8 -12 4 -3 17 -22 27 -42 28 -54 46 -61 93 -38
21 10 47 32 56 49 10 16 22 30 28 30 5 0 9 6 9 14 0 7 11 22 25 32 14 10 25
23 25 28 0 5 11 19 26 32 14 13 22 24 19 24 -4 0 9 16 29 35 20 19 36 38 36
42 0 5 16 23 35 41 20 17 32 32 28 32 -4 0 7 14 24 30 65 63 90 159 54 208
-11 17 -21 35 -21 42 0 6 -4 8 -10 5 -5 -3 -10 1 -10 9 0 9 -4 16 -10 16 -5 0
-10 5 -10 10 0 6 -11 22 -25 36 -14 14 -25 28 -25 33 0 13 -40 51 -53 50 -7 0
-19 -3 -27 -6z"/>
<path d="M4802 4741 c-16 -16 -33 -26 -37 -23 -4 4 -6 3 -5 -3 5 -23 -1 -46
-10 -40 -5 3 -10 0 -10 -8 0 -7 -9 -23 -20 -35 -12 -12 -18 -22 -14 -22 4 0
-4 -12 -18 -27 -27 -29 -45 -107 -27 -119 5 -3 9 -14 9 -25 0 -10 5 -19 10
-19 6 0 10 -7 10 -15 0 -7 8 -19 18 -24 9 -6 14 -11 10 -11 -4 0 9 -16 29 -35
20 -19 33 -35 28 -35 -4 0 7 -13 24 -29 16 -15 27 -31 24 -35 -3 -3 1 -6 10
-6 9 0 17 -4 17 -8 0 -5 8 -18 18 -29 29 -35 70 -85 94 -116 13 -16 33 -41 45
-56 13 -14 23 -30 23 -35 0 -5 3 -7 6 -3 4 3 13 0 21 -8 21 -21 66 -18 86 5 9
11 17 22 17 25 0 2 18 41 39 85 22 44 37 80 33 80 -3 0 -1 5 6 12 7 7 12 35
12 64 0 44 -6 61 -44 117 -23 37 -46 64 -50 60 -3 -3 -6 -1 -6 6 0 7 -6 18
-12 26 -7 7 -29 32 -48 55 -19 23 -43 51 -52 61 -10 11 -18 21 -18 24 0 2 -10
15 -22 28 -13 12 -44 46 -69 75 -26 29 -52 52 -58 52 -6 0 -11 5 -11 10 0 19
-27 10 -58 -19z"/>
<path d="M3139 4482 c-20 -9 -43 -24 -52 -32 -35 -33 -45 -39 -53 -32 -4 4 -4
2 0 -5 4 -7 -5 -19 -21 -30 -15 -10 -45 -33 -66 -53 -21 -19 -44 -34 -50 -32
-7 2 -9 1 -5 -3 7 -7 -15 -35 -27 -35 -3 0 -24 -18 -45 -40 -22 -23 -40 -38
-40 -34 0 3 -16 -13 -35 -36 -19 -23 -35 -38 -35 -33 -1 4 -7 -3 -15 -17 -8
-14 -15 -20 -15 -15 -1 6 -7 -10 -15 -33 -23 -74 -11 -107 63 -179 26 -25 46
-49 44 -55 -1 -5 2 -7 6 -4 5 3 79 -62 163 -145 85 -83 168 -158 184 -167 28
-15 36 -18 75 -26 35 -7 170 65 170 91 0 7 7 13 16 13 8 0 12 5 9 10 -3 6 1
10 10 10 9 0 14 3 12 8 -2 4 7 17 20 29 13 12 23 21 23 20 0 -2 62 58 138 132
75 74 142 133 147 132 6 -1 7 1 3 5 -4 4 -3 13 3 20 16 19 13 87 -4 120 -9 16
-28 41 -44 56 -65 64 -143 136 -143 132 0 -2 -18 15 -39 36 -22 22 -43 40 -47
40 -3 0 -17 11 -30 26 -13 14 -24 23 -24 20 0 -2 -21 16 -47 40 -82 79 -160
101 -234 66z"/>
<path d="M1835 4354 c-8 -8 -17 -13 -19 -12 -8 4 -36 -22 -81 -77 -39 -46 -51
-60 -107 -123 -14 -17 -24 -33 -21 -36 4 -3 -1 -6 -11 -6 -9 0 -14 -5 -11 -10
3 -6 -1 -13 -9 -16 -9 -3 -16 -10 -16 -16 0 -13 -26 -38 -34 -33 -3 3 -4 2 -1
-1 4 -6 -45 -76 -65 -94 -3 -3 -14 -24 -24 -47 -32 -72 -7 -153 77 -247 9 -11
17 -26 17 -33 0 -8 5 -11 10 -8 6 3 10 0 10 -8 0 -7 9 -23 20 -35 11 -12 20
-24 20 -27 0 -3 5 -11 10 -18 6 -7 26 -30 45 -51 19 -22 31 -44 28 -49 -3 -6
-1 -7 5 -3 7 4 12 1 12 -9 0 -9 5 -13 10 -10 6 3 10 2 10 -3 0 -12 50 -33 70
-28 39 8 110 53 110 70 0 3 9 16 19 28 11 13 28 33 39 45 10 13 22 20 26 16 5
-5 9 11 5 20 -1 1 18 23 42 48 109 114 156 168 152 173 -2 2 5 7 16 11 12 3
21 15 21 26 0 10 4 19 10 19 15 0 40 68 40 107 0 37 -26 103 -41 103 -5 0 -9
4 -9 9 0 4 -19 28 -42 53 -24 25 -68 73 -98 107 -30 35 -65 72 -77 84 -12 11
-20 24 -17 29 3 4 1 8 -5 8 -6 0 -19 9 -30 21 -26 29 -87 42 -106 23z"/>
<path d="M4473 4330 c-107 -115 -129 -140 -126 -144 2 -2 -7 -13 -21 -24 -15
-11 -26 -22 -26 -26 0 -5 -51 -64 -98 -112 -31 -33 -53 -89 -47 -119 3 -14 7
-37 11 -52 3 -15 14 -34 25 -43 10 -10 19 -20 19 -22 0 -3 19 -25 43 -50 23
-25 61 -67 84 -94 23 -27 51 -60 63 -74 12 -14 40 -47 63 -74 23 -27 64 -71
90 -98 43 -43 52 -48 92 -48 48 0 74 20 116 88 11 17 25 32 30 32 5 0 9 6 9
13 0 8 11 24 25 37 13 12 22 27 19 31 -3 5 2 9 11 9 9 0 14 4 11 9 -3 5 6 20
21 35 14 14 22 26 18 26 -5 0 2 9 14 19 12 11 22 22 22 25 -1 4 11 24 25 46
49 74 40 170 -23 238 -13 14 -20 29 -16 35 3 5 2 8 -3 5 -5 -3 -15 0 -22 8 -7
8 -10 14 -7 14 3 0 -5 11 -19 24 -15 13 -26 28 -26 35 0 6 -7 11 -17 11 -9 0
-13 3 -10 7 4 3 -2 12 -13 20 -11 8 -20 21 -20 30 0 9 -3 13 -6 10 -4 -4 -22
14 -41 38 -52 69 -136 155 -150 155 -7 0 -13 4 -13 8 0 4 -17 8 -37 8 -29 0
-43 -8 -70 -36z"/>
<path d="M2383 3760 c-27 -6 -129 -70 -110 -70 3 0 -22 -29 -57 -65 -35 -36
-61 -65 -59 -65 4 0 -55 -67 -98 -110 -14 -14 -28 -34 -32 -43 -4 -10 -11 -15
-17 -12 -5 3 -10 1 -10 -4 0 -10 -13 -28 -45 -65 -15 -17 -34 -57 -45 -94 -10
-38 9 -129 31 -143 8 -5 11 -9 7 -9 -4 0 8 -16 27 -35 19 -19 35 -37 35 -41 0
-3 14 -19 31 -35 17 -16 29 -29 26 -29 -3 0 14 -20 39 -45 24 -25 44 -47 44
-50 0 -2 18 -22 41 -45 22 -22 38 -40 36 -40 -3 0 16 -21 41 -46 98 -99 176
-102 260 -10 29 32 243 255 310 322 34 35 59 64 55 64 -3 0 2 9 12 20 29 32
32 118 6 166 -27 51 -46 74 -60 74 -6 0 -11 3 -11 8 0 4 -18 26 -40 50 -22 23
-40 47 -40 52 0 6 -3 9 -7 8 -11 -4 -94 87 -88 95 3 4 2 5 -1 2 -4 -2 -26 17
-51 43 -138 148 -164 165 -230 152z"/>
<path d="M3858 3648 c-54 -53 -98 -102 -98 -108 0 -6 -4 -9 -8 -6 -4 2 -18
-11 -31 -30 -13 -19 -30 -34 -37 -34 -8 0 -14 -5 -14 -11 0 -15 -26 -39 -34
-32 -3 4 -6 0 -6 -8 0 -8 -13 -25 -29 -39 -17 -13 -28 -27 -25 -32 3 -4 -1 -8
-8 -8 -18 0 -69 -82 -75 -120 -5 -38 11 -90 38 -118 11 -12 18 -22 15 -22 -2
0 42 -48 100 -107 57 -59 104 -111 104 -116 0 -4 5 -5 10 -2 6 3 10 1 10 -5 0
-6 20 -31 45 -56 25 -24 45 -48 45 -54 0 -5 4 -10 9 -10 5 0 25 -16 45 -35 20
-19 47 -37 61 -41 41 -10 97 6 129 37 16 16 34 29 38 29 5 0 6 5 3 10 -3 6 1
10 9 10 9 0 16 4 16 9 0 5 20 30 45 55 25 26 45 49 45 51 0 3 16 20 35 39 19
20 35 38 35 40 0 3 16 23 35 43 19 21 46 50 60 65 14 15 25 31 25 37 0 5 8 14
18 20 9 5 16 11 14 13 -2 2 2 17 8 33 18 47 -5 165 -32 165 -5 0 -8 5 -8 10 0
6 -8 18 -17 28 -50 52 -83 93 -83 102 0 6 -3 9 -7 7 -5 -3 -14 1 -21 9 -7 8
-10 14 -7 14 4 0 -14 21 -39 46 -25 25 -46 47 -46 50 0 2 -22 27 -50 55 -27
28 -50 55 -50 61 0 5 -4 6 -10 3 -5 -3 -10 -1 -10 5 0 22 -64 50 -110 48 -43
-2 -50 -7 -142 -100z"/>
<path d="M1063 3721 c-33 -13 -114 -81 -96 -81 4 0 -4 -11 -17 -25 -13 -14
-20 -25 -16 -25 5 0 3 -6 -3 -13 -11 -14 -38 -84 -46 -121 -2 -12 -10 -50 -18
-86 -31 -142 -13 -366 40 -500 4 -8 5 -18 5 -22 -1 -5 2 -8 6 -8 4 0 13 -15
20 -33 28 -77 129 -149 197 -140 68 8 155 60 223 133 63 67 69 75 97 120 15
25 32 48 37 51 5 3 10 10 10 15 1 14 11 38 18 44 11 9 43 121 45 161 2 37 -15
101 -46 174 -7 17 -12 33 -11 38 1 4 -2 7 -8 7 -5 0 -10 7 -10 15 0 8 -3 15
-8 15 -4 0 -13 13 -20 28 -6 16 -21 38 -32 50 -11 12 -20 23 -20 26 0 17 -158
156 -183 160 -7 1 -22 8 -35 14 -33 19 -86 20 -129 3z"/>
<path d="M5245 3729 c-4 -5 -14 -9 -24 -9 -10 0 -24 -7 -31 -15 -7 -9 -15 -13
-18 -11 -2 3 -10 0 -17 -7 -29 -28 -56 -47 -64 -47 -6 0 -13 -9 -16 -20 -4
-11 -11 -18 -16 -15 -5 4 -9 3 -9 -2 0 -4 -13 -21 -28 -38 -69 -75 -145 -217
-164 -307 -9 -45 -9 -69 0 -110 15 -68 16 -69 29 -93 6 -11 13 -29 14 -40 2
-11 13 -28 23 -37 10 -10 16 -18 12 -18 -7 0 23 -47 49 -77 5 -7 16 -19 23
-28 7 -8 9 -15 5 -15 -4 0 6 -9 22 -20 17 -11 26 -20 22 -20 -5 0 16 -20 46
-45 31 -25 60 -45 66 -45 6 0 11 -4 11 -9 0 -13 102 -41 135 -37 39 6 86 30
112 58 42 46 103 184 119 272 2 11 8 44 13 71 10 52 7 235 -4 295 -17 95 -66
239 -89 263 -6 6 -19 24 -28 38 -26 40 -84 71 -139 75 -27 1 -51 -2 -54 -7z"/>
<path d="M4623 3049 c-26 -8 -145 -109 -127 -109 3 0 -5 -10 -18 -23 -13 -13
-41 -45 -63 -71 -22 -26 -53 -63 -70 -81 -16 -18 -48 -54 -70 -80 -22 -26 -51
-59 -64 -73 -36 -41 -49 -64 -55 -97 -7 -36 20 -124 40 -132 8 -3 14 -12 14
-20 0 -8 5 -11 10 -8 6 3 10 0 10 -8 0 -8 7 -17 15 -21 8 -3 15 -13 15 -21 0
-9 5 -13 10 -10 6 3 13 -2 17 -12 4 -9 19 -30 35 -45 15 -15 28 -31 28 -35 0
-5 9 -14 20 -21 11 -7 20 -19 20 -28 0 -8 5 -12 10 -9 6 3 10 2 10 -3 0 -9 31
-47 77 -94 21 -22 81 -24 110 -3 31 22 83 75 83 85 0 5 11 17 25 28 14 11 25
23 25 27 0 4 11 18 25 31 14 13 25 26 25 29 0 5 44 57 87 102 12 13 19 23 15
23 -4 0 -2 4 3 8 21 15 82 99 99 136 20 43 18 123 -4 136 -6 4 -11 10 -11 14
2 10 -32 60 -46 69 -7 4 -13 14 -13 22 0 8 -13 29 -30 47 -16 18 -30 36 -30
41 0 5 -6 14 -12 22 -23 23 -48 55 -48 60 0 3 -8 14 -17 26 -74 89 -106 110
-150 98z"/>
<path d="M1708 3015 c-46 -45 -88 -94 -88 -103 0 -5 -12 -22 -27 -39 -33 -37
-93 -121 -92 -129 0 -3 -8 -13 -19 -22 -10 -9 -22 -24 -26 -32 -4 -8 -13 -26
-21 -39 -28 -49 -8 -150 37 -192 10 -9 15 -19 11 -23 -3 -3 -1 -6 6 -6 7 0 10
-4 7 -8 -3 -5 6 -16 20 -26 13 -11 24 -22 24 -27 0 -4 12 -21 26 -36 14 -15
33 -36 42 -46 9 -11 16 -23 15 -27 -2 -5 6 -12 17 -15 11 -4 20 -10 20 -15 0
-6 15 -25 33 -44 17 -20 50 -56 72 -81 43 -49 91 -71 132 -60 27 6 47 25 123
115 25 29 64 73 86 97 23 24 40 43 37 43 -2 0 14 18 37 40 22 21 40 42 40 46
0 4 7 16 17 26 22 24 25 104 5 145 -9 18 -19 33 -24 33 -4 0 -8 5 -8 10 0 6
-13 24 -30 40 -16 16 -30 32 -30 35 0 3 -12 18 -27 33 -56 56 -118 133 -115
143 1 6 -2 8 -6 5 -5 -3 -31 22 -57 55 -108 138 -173 166 -237 104z"/>
<path d="M3157 2916 c-15 -8 -30 -15 -32 -15 -9 -1 -80 -51 -73 -51 4 0 -13
-19 -39 -42 -25 -24 -84 -79 -129 -123 -46 -44 -112 -107 -148 -140 -35 -33
-62 -63 -60 -66 2 -4 -2 -9 -9 -12 -17 -7 -22 -99 -6 -129 15 -30 116 -128
123 -120 3 3 6 -2 6 -11 0 -10 5 -17 10 -17 6 0 21 -10 34 -22 80 -78 124
-116 130 -111 3 4 6 -1 6 -10 0 -9 4 -17 9 -17 5 0 26 -16 47 -36 66 -60 129
-95 172 -96 43 0 105 25 139 57 55 52 71 65 78 65 4 0 16 11 27 26 11 14 22
23 24 21 3 -2 28 19 57 47 77 75 114 105 121 99 3 -4 6 1 6 10 0 10 4 17 8 17
19 0 90 79 101 113 21 61 6 110 -48 161 -17 16 -28 33 -25 38 3 5 2 7 -3 6
-15 -5 -103 74 -96 85 3 6 1 7 -5 3 -5 -3 -12 -3 -14 1 -1 5 -24 27 -50 50
-25 23 -43 44 -40 47 3 3 -2 6 -12 6 -9 0 -14 5 -11 10 3 6 0 10 -8 10 -7 0
-20 11 -27 25 -7 13 -17 22 -22 19 -4 -3 -12 5 -17 18 -6 13 -10 20 -10 16 -1
-4 -13 4 -28 18 -59 55 -138 76 -186 50z"/>
<path d="M1260 2386 c-16 -28 -33 -56 -38 -61 -5 -6 -7 -16 -4 -23 2 -6 -1
-12 -7 -12 -6 0 -11 -7 -11 -16 0 -8 -5 -25 -12 -37 -35 -63 -28 -131 18 -194
13 -17 24 -35 24 -38 0 -4 14 -20 31 -36 17 -16 28 -29 24 -29 -5 0 4 -11 19
-25 14 -13 26 -27 26 -31 0 -4 13 -20 30 -35 16 -16 28 -29 25 -29 -2 0 8 -12
22 -27 14 -16 42 -48 62 -73 87 -108 125 -122 161 -56 7 14 17 26 22 26 5 0 7
4 4 8 -3 5 4 18 14 30 11 12 20 24 20 28 0 4 11 17 26 30 14 13 22 24 19 24
-3 0 3 17 13 38 21 40 19 78 -3 122 -8 15 -11 30 -8 34 4 3 -1 6 -10 6 -9 0
-17 7 -17 16 0 8 -4 13 -9 9 -5 -3 -12 4 -16 15 -3 11 -11 20 -16 20 -6 0 -8
4 -4 9 3 5 -4 12 -15 16 -11 3 -20 13 -20 21 0 8 -4 14 -10 14 -5 0 -10 4 -10
9 0 5 -15 25 -32 43 -18 19 -44 49 -58 68 -14 18 -31 39 -37 46 -7 7 -13 17
-13 23 0 6 -4 11 -9 11 -6 0 -24 20 -42 45 -33 46 -54 59 -102 60 -24 1 -33
-6 -57 -49z"/>
<path d="M5065 2430 c-22 -8 -44 -32 -125 -132 -29 -38 -57 -68 -62 -68 -4 0
-8 -7 -8 -15 0 -8 -9 -19 -21 -25 -11 -7 -18 -14 -15 -17 3 -3 0 -11 -7 -17
-8 -6 -42 -45 -78 -86 -35 -41 -68 -78 -72 -81 -5 -3 -9 -10 -9 -15 0 -5 -4
-19 -9 -32 -22 -58 -10 -98 52 -173 22 -26 39 -49 39 -53 0 -5 8 -15 57 -75
l21 -26 34 25 c18 13 44 37 58 54 14 16 36 40 49 53 13 13 21 23 18 23 -4 0
14 20 39 45 24 25 42 45 39 45 -3 0 4 10 17 23 42 43 88 100 88 110 0 6 3 7 7
4 6 -7 17 11 54 83 19 39 19 103 0 139 -7 12 -9 21 -6 21 6 0 -81 170 -94 183
-12 12 -44 15 -66 7z"/>
<path d="M2441 2250 c-18 -5 -44 -19 -56 -32 -12 -12 -31 -30 -41 -39 -29 -23
-207 -181 -222 -196 -8 -7 -22 -18 -33 -23 -10 -6 -28 -28 -39 -49 -33 -67
-14 -97 149 -239 29 -26 61 -55 69 -64 9 -10 22 -18 29 -18 7 0 13 -7 13 -15
0 -8 6 -15 13 -15 7 0 20 -8 28 -17 9 -10 26 -25 39 -33 12 -8 28 -21 36 -27
7 -7 17 -13 23 -13 5 0 14 -6 18 -13 8 -14 42 -31 56 -29 4 1 7 -3 7 -8 0 -6
20 -10 44 -10 47 0 116 24 116 41 0 5 4 8 9 5 4 -3 16 3 26 14 10 11 22 20 26
20 5 0 17 6 26 14 10 8 47 36 83 63 36 26 70 52 77 58 6 5 26 21 44 35 55 42
68 57 74 94 9 43 -17 90 -72 132 -21 16 -45 35 -54 44 -10 8 -24 20 -31 26
-35 28 -158 136 -197 173 -24 22 -48 41 -53 41 -5 0 -6 5 -3 10 3 6 0 10 -8
10 -8 0 -17 6 -20 13 -13 34 -115 61 -176 47z"/>
<path d="M3885 2250 c-42 -9 -95 -38 -102 -56 -3 -7 -9 -14 -13 -14 -5 0 -25
-16 -44 -35 -20 -19 -42 -35 -48 -35 -6 0 -8 -3 -5 -7 4 -3 -11 -19 -33 -35
-22 -17 -40 -34 -40 -39 0 -5 -4 -9 -9 -9 -4 0 -35 -24 -67 -54 -32 -30 -62
-52 -66 -50 -5 3 -7 1 -6 -3 2 -5 -17 -27 -42 -49 -47 -42 -50 -48 -57 -100
-4 -26 2 -37 36 -70 69 -66 91 -85 91 -77 0 4 9 -3 20 -15 12 -12 24 -22 29
-22 4 0 20 -11 35 -25 15 -14 32 -25 37 -25 6 0 7 -5 3 -12 -4 -6 -3 -9 2 -6
5 4 42 -18 83 -48 65 -48 86 -57 126 -56 46 1 92 18 130 47 25 19 45 32 45 29
0 -3 14 10 30 28 17 18 30 29 30 25 0 -4 11 2 24 15 13 13 37 33 54 46 16 12
41 34 56 49 14 14 26 23 26 19 0 -3 14 8 30 26 17 17 30 28 30 25 0 -13 82 79
91 101 23 59 13 86 -58 148 -108 96 -153 136 -207 187 -94 89 -143 112 -211
97z"/>
<path d="M1818 1725 c-27 -19 -48 -32 -48 -28 0 4 -7 -3 -16 -15 -8 -12 -19
-22 -24 -22 -14 0 -84 -50 -93 -66 -13 -22 18 -68 84 -125 110 -95 131 -114
153 -134 11 -12 29 -24 39 -28 9 -3 17 -11 17 -16 0 -5 9 -13 20 -16 11 -4 18
-11 15 -16 -4 -5 1 -9 10 -9 10 0 13 -5 9 -12 -4 -6 -3 -8 4 -4 6 3 21 -4 34
-16 32 -32 104 -62 142 -60 29 2 163 55 231 92 60 33 63 100 7 145 -14 11 -34
28 -44 38 -10 9 -18 15 -18 12 0 -3 -12 6 -27 20 -15 14 -31 25 -35 25 -3 0
-22 16 -42 35 -20 19 -36 31 -36 27 -1 -4 -10 4 -20 17 -11 13 -20 20 -20 17
0 -3 -18 11 -39 32 -22 20 -56 51 -76 67 -20 17 -43 36 -51 43 -8 7 -14 10
-14 5 0 -4 -4 -2 -8 5 -5 7 -31 15 -58 18 -44 4 -53 2 -96 -31z"/>
<path d="M4455 1748 c-16 -6 -42 -21 -56 -34 -14 -14 -28 -21 -32 -17 -4 3 -7
-2 -7 -12 0 -10 -3 -16 -6 -13 -3 4 -29 -16 -57 -43 -28 -27 -57 -49 -65 -49
-7 0 -11 -4 -7 -9 7 -12 -29 -33 -40 -23 -5 4 -5 1 -1 -6 5 -9 1 -15 -13 -19
-11 -3 -23 -14 -27 -25 -3 -11 -8 -17 -11 -14 -3 3 -11 0 -17 -7 -7 -7 -29
-25 -50 -42 -103 -82 -124 -118 -91 -156 19 -20 164 -93 209 -105 14 -3 28
-10 31 -14 7 -12 85 -2 111 14 13 9 24 14 24 11 0 -3 8 3 18 13 40 37 76 61
85 55 6 -3 7 -2 4 4 -3 5 3 17 14 26 10 9 19 14 19 11 0 -3 11 7 25 22 14 15
25 24 25 20 0 -3 16 11 35 31 19 20 35 34 35 30 0 -3 13 6 28 21 15 15 44 41
63 57 43 38 79 84 79 101 0 7 -27 32 -60 55 -33 23 -60 46 -60 50 0 5 -4 8 -9
7 -5 -2 -23 9 -40 25 -17 15 -31 24 -31 20 0 -5 -4 -2 -9 5 -11 18 -77 23
-116 10z"/>
<path d="M3145 1552 c-37 -7 -150 -55 -180 -76 -16 -11 -34 -21 -38 -21 -5 0
-15 -9 -23 -19 -8 -11 -14 -17 -14 -13 0 10 -20 -7 -94 -81 -114 -113 -153
-230 -102 -310 22 -35 86 -99 86 -86 0 3 12 -3 28 -14 15 -11 29 -20 32 -20 3
0 18 -5 33 -11 16 -6 34 -11 41 -11 6 0 17 -5 24 -12 7 -7 12 -9 12 -6 0 3 21
0 47 -8 70 -21 236 -29 334 -15 86 12 221 50 227 63 2 5 8 6 13 2 5 -3 9 0 9
5 0 6 3 10 8 9 15 -3 58 22 92 54 62 58 77 111 54 188 -8 27 -20 55 -27 62 -8
7 -14 18 -16 23 -1 6 -11 20 -21 33 -11 12 -20 27 -20 34 0 6 -3 8 -7 5 -3 -4
-15 5 -25 20 -10 16 -18 24 -18 20 0 -4 -11 3 -24 17 -13 15 -26 26 -30 26 -4
0 -16 9 -28 20 -12 11 -28 20 -35 20 -7 0 -13 4 -13 9 0 12 -119 69 -183 88
-43 13 -93 15 -142 5z"/>
</g>
</svg>
